<svg width="24" height="24" viewBox="0 0 24 24" fill="none" xmlns="http://www.w3.org/2000/svg">
<path d="M20.8123 18.6998C20.843 18.6999 21.4299 18.3482 22.1164 17.9183C22.803 17.4884 23.3511 17.1109 23.3347 17.0797C23.3182 17.0484 22.9885 16.6032 22.6019 16.0903C21.8257 15.0603 21.0785 13.6987 20.7473 12.711C19.7154 9.63266 20.1903 6.43607 22.0632 3.85584L22.5401 3.19877L21.6322 2.29089L20.7243 1.38295L20.1241 1.81062C16.1925 4.6126 11.4801 4.2902 7.30213 0.933509C7.02934 0.714301 6.79609 0.545132 6.78376 0.557464C6.6702 0.671018 5.24214 3.00594 5.24248 3.07745C5.24273 3.12915 5.49248 3.34063 5.79748 3.54724C9.17452 5.8354 13.0384 6.58146 16.0251 5.52224L16.7416 5.26817L6.78091 15.265L0.482467 21.5865L2.31987 23.4239L8.65754 17.1092L18.6309 7.17215L18.3287 8.09518C17.5446 10.4897 17.8658 13.3275 19.2448 16.1885C19.6377 17.0037 20.696 18.6993 20.8123 18.6998Z" fill="black"/>
</svg>
