<svg width="42" height="42" viewBox="0 0 42 42" fill="none" xmlns="http://www.w3.org/2000/svg">
<path d="M42 37.625V42H29.75V40.25H40.25V37.625C40.25 36.113 39.1632 35.0332 37.6058 35H29.2652C29.0447 34.3823 28.7753 33.7873 28.4165 33.25H36.75V17.5H28V32.7355C27.496 32.1055 26.922 31.5332 26.25 31.0817V17.4982H24.5V12.2483H26.25V15.7482H31.5V12.2483H33.25V15.7482H38.5V12.2483H40.25V17.4982H38.5V33.3428C40.5703 33.7453 42 35.434 42 37.625ZM26.25 37.625V42H0V37.625C0 35.4463 1.603 33.6508 3.689 33.32C4.3365 30.926 6.79175 21.378 6.979 14H5.25V12.25H6.4645L3.689 6.64825C3.402 5.85725 3.50875 5.082 3.93575 4.48C4.36275 3.878 5.05575 3.5175 5.79425 3.5175H12.2517V0H14.0018V3.5175H20.4907C21.2292 3.5175 21.924 3.878 22.3493 4.48C22.7745 5.082 22.8813 5.85725 22.6345 6.552L19.817 12.25H21.0018V14H19.2727C19.467 21.3535 21.917 30.919 22.5627 33.32C24.647 33.6525 26.2518 35.448 26.2518 37.625H26.25ZM8.4175 12.25H17.8622L21.0245 5.8695C21.0665 5.73475 20.965 5.5545 20.9177 5.488C20.8705 5.4215 20.734 5.26575 20.489 5.26575H5.7925C5.5475 5.26575 5.411 5.4215 5.36375 5.488C5.3165 5.5545 5.21675 5.73475 5.29725 5.96575L8.4175 12.25ZM8.729 14C8.5575 21.2153 6.34375 30.1577 5.5195 33.25H20.7305C19.9097 30.156 17.6995 21.196 17.521 14H8.729ZM24.4982 37.625C24.4982 36.1777 23.3205 35 21.8732 35H4.375C2.92775 35 1.75 36.1777 1.75 37.625V40.25H24.5V37.625H24.4982Z" fill="black"/>
</svg>
