<svg width="42" height="41" viewBox="0 0 42 41" fill="none" xmlns="http://www.w3.org/2000/svg">
<path d="M34.125 0.75H7.875C3.53325 0.75 0 4.28325 0 8.625V31.375C0 35.7168 3.53325 39.25 7.875 39.25H20.125C20.608 39.25 21 38.858 21 38.375C21 37.892 20.608 37.5 20.125 37.5H7.875C4.4975 37.5 1.75 34.7525 1.75 31.375V14.75H40.25V22.625C40.25 23.108 40.642 23.5 41.125 23.5C41.608 23.5 42 23.108 42 22.625V8.625C42 4.28325 38.4668 0.75 34.125 0.75ZM1.75 13V8.625C1.75 5.2475 4.4975 2.5 7.875 2.5H34.125C37.5025 2.5 40.25 5.2475 40.25 8.625V13H1.75ZM8.75 7.75C8.75 8.716 7.966 9.5 7 9.5C6.034 9.5 5.25 8.716 5.25 7.75C5.25 6.784 6.034 6 7 6C7.966 6 8.75 6.784 8.75 7.75ZM14 7.75C14 8.716 13.216 9.5 12.25 9.5C11.284 9.5 10.5 8.716 10.5 7.75C10.5 6.784 11.284 6 12.25 6C13.216 6 14 6.784 14 7.75ZM19.25 7.75C19.25 8.716 18.466 9.5 17.5 9.5C16.534 9.5 15.75 8.716 15.75 7.75C15.75 6.784 16.534 6 17.5 6C18.466 6 19.25 6.784 19.25 7.75ZM36.5225 34.2853C37.758 32.7768 38.5 30.8483 38.5 28.75C38.5 23.9253 34.5748 20 29.75 20C24.9253 20 21 23.9253 21 28.75C21 33.5748 24.9253 37.5 29.75 37.5C31.8483 37.5 33.775 36.758 35.2853 35.5225L40.5073 40.7445C40.6788 40.916 40.9028 41 41.1268 41C41.3507 41 41.5748 40.9143 41.7463 40.7445C42.0875 40.4033 42.0875 39.8485 41.7463 39.5073L36.5225 34.2853ZM29.75 35.75C25.8895 35.75 22.75 32.6105 22.75 28.75C22.75 24.8895 25.8895 21.75 29.75 21.75C33.6105 21.75 36.75 24.8895 36.75 28.75C36.75 32.6105 33.6105 35.75 29.75 35.75Z" fill="black"/>
</svg>
