<svg width="42" height="42" viewBox="0 0 42 42" fill="none" xmlns="http://www.w3.org/2000/svg">
<path d="M1.659 9.68267C0.58975 8.61342 0 7.18717 0 5.67167C0 4.15617 0.58975 2.72992 1.659 1.66067C3.79225 -0.483082 7.539 -0.484832 9.68275 1.66067L18.6392 10.6172L17.402 11.8544L8.4455 2.89617C6.9615 1.41392 4.37325 1.41742 2.898 2.89617C2.15775 3.63642 1.75 4.61992 1.75 5.67167C1.75 6.72342 2.156 7.70517 2.89625 8.44542L11.8527 17.4037L10.6155 18.6409L1.659 9.68267ZM31.4177 23.3939L30.1805 24.6312L40.25 34.7007V40.2499H34.7008L24.6313 30.1804L23.394 31.4177L33.9762 41.9999H42V33.9762L31.4177 23.3939ZM19.201 30.6424C19.4548 33.1747 18.6147 35.7962 16.6793 37.7317C13.4523 40.9587 2.32575 41.7777 1.0675 41.8617L0.07175 41.9264L0.1365 40.9307C0.2205 39.6724 1.04125 28.5459 4.2665 25.3189C6.202 23.3834 8.8235 22.5434 11.3558 22.7972L32.5325 1.62567C34.6955 -0.537332 38.213 -0.537332 40.376 1.62567C42.539 3.78867 42.5373 7.30442 40.376 9.46742L19.201 30.6424ZM13.3822 23.2469C14.5862 23.6687 15.7168 24.3582 16.6793 25.3189C17.64 26.2797 18.3312 27.4102 18.753 28.6159L39.1387 8.23017C40.6175 6.74967 40.6193 4.34167 39.1387 2.86292C37.6582 1.38417 35.2485 1.38242 33.7698 2.86292L13.3822 23.2469ZM15.442 26.5562C14.0718 25.1877 12.271 24.5017 10.472 24.5017C8.673 24.5017 6.87225 25.1877 5.50375 26.5562C3.37575 28.6842 2.30125 36.2477 1.96175 40.0364C5.7505 39.6969 13.314 38.6207 15.442 36.4944C18.1807 33.7557 18.179 29.2984 15.442 26.5562Z" fill="black"/>
</svg>
