<svg width="42" height="42" viewBox="0 0 42 42" fill="none" xmlns="http://www.w3.org/2000/svg">
<g clip-path="url(#clip0_479_221)">
<path d="M34.125 0H7.875C3.53325 0 0 3.53325 0 7.875V34.125C0 38.4668 3.53325 42 7.875 42H28.6003C30.6723 42 32.7022 41.16 34.1688 39.6935L39.6935 34.1705C41.181 32.683 42 30.7055 42 28.6003V7.875C42 3.53325 38.4668 0 34.125 0ZM1.75 34.125V7.875C1.75 4.4975 4.4975 1.75 7.875 1.75H34.125C37.5025 1.75 40.25 4.4975 40.25 7.875V28H32.375C29.9635 28 28 29.9618 28 32.375V40.25H7.875C4.4975 40.25 1.75 37.5025 1.75 34.125ZM38.4562 32.9315L32.9315 38.4545C32.0653 39.3208 30.9452 39.907 29.75 40.138V32.375C29.75 30.9277 30.9277 29.75 32.375 29.75H40.1432C39.9175 30.9487 39.3382 32.0513 38.4562 32.9315ZM7 10.5C7 9.534 7.784 8.75 8.75 8.75C9.716 8.75 10.5 9.534 10.5 10.5C10.5 11.466 9.716 12.25 8.75 12.25C7.784 12.25 7 11.466 7 10.5ZM10.5 21C10.5 21.966 9.716 22.75 8.75 22.75C7.784 22.75 7 21.966 7 21C7 20.034 7.784 19.25 8.75 19.25C9.716 19.25 10.5 20.034 10.5 21ZM10.5 31.5C10.5 32.466 9.716 33.25 8.75 33.25C7.784 33.25 7 32.466 7 31.5C7 30.534 7.784 29.75 8.75 29.75C9.716 29.75 10.5 30.534 10.5 31.5Z" fill="black"/>
</g>
<defs>
<clipPath id="clip0_479_221">
<rect width="42" height="42" fill="white"/>
</clipPath>
</defs>
</svg>
