<svg width="32" height="42" viewBox="0 0 32 42" fill="none" xmlns="http://www.w3.org/2000/svg">
<path d="M31.75 36.7502V42.0002H30V36.7502C30 33.8557 27.6445 31.5002 24.75 31.5002H7.25C4.3555 31.5002 2 33.8557 2 36.7502V42.0002H0.25V36.7502C0.25 32.8897 3.3895 29.7502 7.25 29.7502H24.75C28.6105 29.7502 31.75 32.8897 31.75 36.7502ZM2 15.7502H0.25C0.25 11.2667 2.1715 6.9809 5.51925 3.9919C8.86525 1.0099 13.3593 -0.400599 17.855 0.106901C24.8498 0.908401 30.6282 6.5399 31.5942 13.4979C31.9722 16.2209 31.6537 18.9824 30.6755 21.4867C29.559 24.3357 26.6488 26.2502 23.4358 26.2502H16.0018C14.0715 26.2502 12.5018 24.6804 12.5018 22.7502C12.5018 20.8199 14.0715 19.2502 16.0018 19.2502C17.932 19.2502 19.5018 20.8199 19.5018 22.7502C19.5018 23.3872 19.3302 23.9857 19.031 24.5002H23.4358C25.9365 24.5002 28.1905 23.0319 29.0445 20.8479C29.916 18.6237 30.1978 16.1632 29.8617 13.7377C29.0042 7.5584 23.8697 2.5569 17.6572 1.8464C13.599 1.3809 9.7035 2.6094 6.68475 5.3009C3.708 7.9574 2 11.7654 2 15.7519V15.7502ZM16 24.5002C16.9643 24.5002 17.75 23.7162 17.75 22.7502C17.75 21.7842 16.9643 21.0002 16 21.0002C15.0358 21.0002 14.25 21.7842 14.25 22.7502C14.25 23.7162 15.0358 24.5002 16 24.5002ZM16 7.00015C20.8247 7.00015 24.75 10.9254 24.75 15.7502C24.75 17.7329 24.0483 19.5319 22.93 21.0002H25.0773C25.9785 19.4549 26.5017 17.6647 26.5017 15.7502C26.5017 9.9594 21.7925 5.25015 16.0018 5.25015C10.211 5.25015 5.50175 9.9594 5.50175 15.7502C5.50175 18.8932 6.8965 21.7089 9.091 23.6357C9.05425 23.3434 9.00175 23.0529 9.00175 22.7502C9.00175 22.2077 9.077 21.6862 9.19425 21.1787C7.99725 19.6824 7.25175 17.8099 7.25175 15.7502C7.25175 10.9254 11.177 7.00015 16.0018 7.00015H16Z" fill="black"/>
</svg>
