<svg width="42" height="42" viewBox="0 0 42 42" fill="none" xmlns="http://www.w3.org/2000/svg">
<path d="M17.024 25.4066C17.689 25.9666 18.5027 26.2501 19.3147 26.2501C19.8992 26.2501 20.4837 26.1031 21.014 25.8038L40.1887 16.2716C41.3227 15.6136 42.0017 14.4358 42.0017 13.1233C42.0017 11.8108 41.3227 10.6331 40.1397 9.94885L21.0525 0.467348C19.7487 -0.267651 18.1667 -0.117151 17.024 0.845348C15.8812 1.8061 15.463 3.33735 15.9897 4.8161L19.7487 13.1268L15.9617 21.5058C15.463 22.9163 15.8812 24.4476 17.024 25.4066ZM17.584 22.1586L20.909 14.8086L32.7197 13.7743C33.4268 13.6326 33.4268 12.6211 32.7197 12.4793L20.9072 11.4451L17.6102 4.16335C17.304 3.2971 17.6873 2.5726 18.1493 2.1841C18.4345 1.9461 18.837 1.75885 19.3025 1.75885C19.5947 1.75885 19.9097 1.83235 20.2335 2.01435L39.3085 11.4906C39.8982 11.8318 40.25 12.4426 40.25 13.1251C40.25 13.8076 39.8982 14.4166 39.3575 14.7333L20.1932 24.2603C19.3917 24.7066 18.6112 24.4546 18.1493 24.0696C17.6873 23.6811 17.304 22.9566 17.5822 22.1586H17.584ZM17.5017 41.1268C17.5017 41.6098 17.1097 42.0018 16.6267 42.0018H11.3767C10.8937 42.0018 10.5017 41.6098 10.5017 41.1268C10.5017 40.6438 10.8937 40.2518 11.3767 40.2518H16.6267C17.1097 40.2518 17.5017 40.6438 17.5017 41.1268ZM42.0017 35.8768C42.0017 39.2543 39.2542 42.0018 35.8767 42.0018H21.8767C21.3937 42.0018 21.0017 41.6098 21.0017 41.1268C21.0017 40.6438 21.3937 40.2518 21.8767 40.2518H35.8767C38.29 40.2518 40.2517 38.2901 40.2517 35.8768C40.2517 33.4636 38.29 31.5018 35.8767 31.5018H9.625C4.31725 31.5018 0 27.1828 0 21.8768C0 16.5708 4.31725 12.2518 9.625 12.2518H14.875C15.358 12.2518 15.75 12.6438 15.75 13.1268C15.75 13.6098 15.358 14.0018 14.875 14.0018H9.625C5.28325 14.0018 1.75 17.5351 1.75 21.8768C1.75 26.2186 5.28325 29.7518 9.625 29.7518H35.875C39.2525 29.7518 42.0017 32.4993 42.0017 35.8768ZM7.00175 41.1268C7.00175 41.6098 6.60975 42.0018 6.12675 42.0018H0.875C0.392 42.0018 0 41.6098 0 41.1268C0 40.6438 0.392 40.2518 0.875 40.2518H6.125C6.608 40.2518 7.00175 40.6438 7.00175 41.1268Z" fill="black"/>
</svg>
