<svg width="42" height="32" viewBox="0 0 42 32" fill="none" xmlns="http://www.w3.org/2000/svg">
<path d="M16.0475 19.2025L11.263 14.418C10.7712 13.9262 10.5 13.2717 10.5 12.577C10.5 11.8822 10.7712 11.2278 11.263 10.7343L16.1245 5.8745L17.3617 7.11175L12.5002 11.9715C12.3393 12.1325 12.25 12.3477 12.25 12.577C12.25 12.8062 12.3393 13.0197 12.5002 13.1807L17.2847 17.9653L16.0475 19.2025ZM29.582 13.1807L24.7572 18.0055L25.9945 19.2428L30.8193 14.418C31.8342 13.403 31.8342 11.751 30.8193 10.7343L25.9175 5.8325L24.6803 7.06975L29.582 11.9715C29.9162 12.304 29.9162 12.8465 29.582 13.1807ZM42 23V27.375C42 29.7865 40.0365 31.75 37.625 31.75H4.375C1.9635 31.75 0 29.7865 0 27.375V23H3.5V0.25H38.5V23H42ZM5.25 23H15.2372L16.9872 24.75H25.0128L26.7628 23H36.75V2H5.25V23ZM40.25 24.75H27.4872L25.7372 26.5H16.2628L14.5128 24.75H1.75V27.375C1.75 28.8223 2.92775 30 4.375 30H37.625C39.0723 30 40.25 28.8223 40.25 27.375V24.75Z" fill="black"/>
</svg>
