<svg width="45" height="45" viewBox="0 0 45 45" fill="none" xmlns="http://www.w3.org/2000/svg">
<path d="M9.19973 39.2684C9.19958 39.3275 9.87582 40.4563 10.7025 41.7766C11.5293 43.097 12.2551 44.1513 12.3153 44.1197C12.3754 44.0879 13.2319 43.4536 14.2185 42.71C16.1998 41.2167 18.819 39.779 20.7189 39.1417C26.6402 37.1558 32.7885 38.0684 37.7508 41.67L39.0145 42.587L40.761 40.8405L42.5077 39.0939L41.6853 37.9397C36.297 30.3782 36.9186 21.3141 43.3763 13.2771C43.798 12.7523 44.1234 12.3036 44.0997 12.2799C43.8813 12.0615 39.3907 9.31548 39.2531 9.31615C39.1537 9.31663 38.7469 9.79709 38.3494 10.3838C33.9472 16.88 32.511 24.3122 34.5475 30.0566L35.0359 31.4346L15.8106 12.2789L3.65363 0.16619L0.118946 3.70088L12.2629 15.8891L31.3732 35.0693L29.5979 34.4882C24.9924 32.9808 19.534 33.5994 14.0305 36.2528C12.4625 37.0086 9.20082 39.0449 9.19973 39.2684Z" fill="black"/>
</svg>
