<svg width="85" height="86" viewBox="0 0 85 86" fill="none" xmlns="http://www.w3.org/2000/svg">
<path d="M38.1193 54.7102C35.1231 62.7181 35.6692 73.4969 39.419 80.3597L42.5002 86L45.5815 80.3597C49.331 73.4969 49.877 62.7185 46.8813 54.7102L44.6345 48.7048C44.7541 48.6674 44.8695 48.6223 44.9858 48.578L47.5865 54.4148C51.0648 62.221 58.9838 69.4514 66.4315 71.6221L72.5523 73.4057L70.7895 67.2129C68.6443 59.6776 61.4976 51.6654 53.7824 48.1458L48.2104 45.6045C48.2668 45.4871 48.3227 45.3697 48.3715 45.2485L54.0744 47.4324C61.9892 50.4635 72.6425 49.911 79.4256 46.1175L85 43L79.4254 39.8824C72.6423 36.0888 61.9892 35.5364 54.0742 38.5674L48.3713 40.7514C48.3225 40.63 48.2665 40.5126 48.2102 40.3954L53.7822 37.8538C61.4974 34.3346 68.6441 26.3224 70.7893 18.787L72.5521 12.5942L66.4313 14.3778C58.9838 16.5482 51.0646 23.779 47.5863 31.585L44.9856 37.4218C44.8693 37.3776 44.7539 37.3322 44.6343 37.2952L46.8811 31.2896C49.877 23.2816 49.3308 12.503 45.5814 5.64001L42.5002 -1.85772e-06L39.419 5.64018C35.6692 12.5032 35.1231 23.2816 38.1193 31.2898L40.4708 37.576C40.3637 37.6256 40.2562 37.6754 40.1525 37.7312L37.4138 31.5852C33.9357 23.7792 26.0167 16.5484 18.569 14.378L12.4482 12.5944L14.2111 18.7872C16.356 26.3224 23.5028 34.3348 31.2178 37.854L37.4708 40.7062C37.4274 40.8116 37.3917 40.921 37.3539 41.0294L30.9258 38.5676C23.0111 35.5364 12.3577 36.089 5.57471 39.8826L-1.87959e-06 43L5.57471 46.1179C12.3577 49.9114 23.0107 50.4639 30.9258 47.4329L37.3543 44.9707C37.3917 45.079 37.4274 45.1887 37.4712 45.2941L31.2182 48.1462C23.5028 51.6654 16.3565 59.6776 14.2111 67.2129L12.4482 73.4057L18.569 71.6221C26.0167 69.4519 33.9357 62.221 37.4143 54.4152L40.1525 48.2688C40.2562 48.3247 40.3638 48.3746 40.4713 48.424L38.1193 54.7102Z" fill="black"/>
</svg>
