<svg width="63" height="82" viewBox="0 0 63 82" fill="none" xmlns="http://www.w3.org/2000/svg">
<path d="M37.2659 42.5771C36.9271 42.5771 36.5829 42.5086 36.2567 42.3662L34.8996 41.7823C33.784 41.3029 32.636 40.8109 31.4194 40.2576C30.1939 40.8163 29.0387 41.3119 27.9141 41.7931L26.584 42.3662C25.7622 42.7231 24.8376 42.6239 24.1113 42.1031C23.3832 41.5822 22.9921 40.7388 23.066 39.8467C23.2012 38.1868 23.3832 36.4711 23.6049 34.7355C22.3686 33.4415 21.1412 32.0484 19.9445 30.5831C19.3931 29.9073 19.229 29.0116 19.5066 28.1861C19.7841 27.3589 20.4582 26.7408 21.307 26.5353C22.7633 26.1821 24.5547 25.818 26.5245 25.4738C27.4671 23.6877 28.4187 22.0351 29.2946 20.6636C29.7596 19.9355 30.5544 19.5029 31.4194 19.5029C32.2827 19.5029 33.0775 19.9373 33.5425 20.6636C34.4202 22.0369 35.37 23.6895 36.3125 25.4738C38.2824 25.818 40.0738 26.1821 41.53 26.5353C42.3789 26.7408 43.0529 27.3571 43.3305 28.1843C43.608 29.0098 43.444 29.9055 42.8943 30.5831C41.6995 32.0466 40.4703 33.4415 39.2322 34.7355C39.4557 36.4819 39.6377 38.1994 39.7711 39.8467C39.8431 40.7388 39.4539 41.584 38.7258 42.1049C38.2914 42.4167 37.7814 42.5771 37.2659 42.5771ZM31.423 37.183C31.6339 37.183 31.8448 37.228 32.0394 37.3199C33.447 37.9723 34.7734 38.5418 36.0566 39.0933L36.8009 39.4141C36.6586 37.7993 36.4711 36.1232 36.2423 34.4201C36.1828 33.975 36.3324 33.5244 36.646 33.2036C37.8481 31.9727 39.0483 30.639 40.218 29.2333C38.7636 28.8998 37.0154 28.5592 35.1122 28.2402C34.6581 28.1645 34.2652 27.878 34.0543 27.4688C33.1658 25.7513 32.2647 24.1473 31.423 22.7884C30.5832 24.1437 29.6803 25.7495 28.7918 27.4688C28.5809 27.878 28.188 28.1645 27.7338 28.2402C25.8307 28.5592 24.0807 28.8998 22.6281 29.2333C23.7995 30.6426 24.998 31.9763 26.1983 33.2036C26.5119 33.5244 26.6615 33.975 26.602 34.4201C26.375 36.1124 26.1875 37.7885 26.0433 39.4141L26.7624 39.1042C28.0528 38.5509 29.3883 37.9778 30.8049 37.3217C31.0013 37.228 31.2122 37.183 31.423 37.183Z" fill="#494E5B"/>
<path d="M31.4263 53.1153C19.2539 53.1153 9.35059 43.2119 9.35059 31.0396C9.35059 18.8672 19.2539 8.96387 31.4263 8.96387C43.5987 8.96387 53.502 18.8672 53.502 31.0396C53.502 43.2119 43.5987 53.1153 31.4263 53.1153ZM31.4263 11.8907C20.8669 11.8907 12.2774 20.4802 12.2774 31.0396C12.2774 41.5989 20.8669 50.1884 31.4263 50.1884C41.9857 50.1884 50.5752 41.5989 50.5752 31.0396C50.5752 20.4802 41.9839 11.8907 31.4263 11.8907Z" fill="#494E5B"/>
<path d="M23.5391 61.2083C22.9282 61.2083 22.319 61.1272 21.7117 60.9307C19.585 60.2405 18.2063 58.3715 16.9898 56.7225C16.2166 55.6754 15.4867 54.6841 14.6739 54.093C13.8449 53.4892 12.6644 53.0946 11.4154 52.6746C9.48521 52.0276 7.29909 51.2923 6.00148 49.5099C4.71648 47.7455 4.69304 45.5486 4.66781 43.4237C4.65339 42.0973 4.63898 40.8429 4.31458 39.8463C4.0136 38.9163 3.30892 37.9323 2.56098 36.8906C1.36069 35.2145 0 33.3149 0 31.0387C0 28.7624 1.36069 26.8629 2.56098 25.1868C3.30711 24.1451 4.0118 23.1593 4.31458 22.2311C4.63718 21.2345 4.65159 19.9819 4.66781 18.6536C4.69124 16.5288 4.71648 14.3319 6.00148 12.5675C7.29729 10.785 9.48521 10.0515 11.4154 9.40451C12.6644 8.98639 13.8449 8.58989 14.6739 7.98614C15.4867 7.39501 16.2166 6.40558 16.9898 5.35667C18.2063 3.70762 19.585 1.83867 21.7117 1.14841C23.7518 0.485182 25.8298 1.1358 27.8375 1.76298C29.1243 2.16488 30.3408 2.54515 31.4222 2.54515C32.5035 2.54515 33.72 2.16488 35.0068 1.76298C37.0145 1.1358 39.0925 0.485182 41.1327 1.14841C43.2593 1.83867 44.638 3.70762 45.8545 5.35667C46.6277 6.40378 47.3576 7.39501 48.1704 7.98614C48.9995 8.58989 50.1799 8.98458 51.4289 9.40451C53.3591 10.0515 55.5452 10.7868 56.8428 12.5693C58.1278 14.3337 58.1531 16.5306 58.1765 18.6572C58.1909 19.9837 58.2053 21.2381 58.5279 22.2329C58.8289 23.1611 59.5354 24.1451 60.2815 25.1868C61.4818 26.8629 62.8425 28.7624 62.8425 31.0387C62.8425 33.3149 61.4818 35.2145 60.2815 36.8924C59.5354 37.9341 58.8307 38.9199 58.5279 39.8481C58.2053 40.8429 58.1909 42.0973 58.1747 43.4237C58.1513 45.5486 58.126 47.7455 56.841 49.5117C55.5434 51.2941 53.3573 52.0276 51.4271 52.6746C50.1781 53.0928 48.9977 53.4892 48.1686 54.093C47.3558 54.6841 46.6259 55.6736 45.8527 56.7225C44.6362 58.3715 43.2575 60.2387 41.1327 60.9289C39.0889 61.5903 37.0145 60.9415 35.005 60.3144C33.7164 59.9125 32.5017 59.5322 31.4204 59.5322C30.339 59.5322 29.1225 59.9125 27.8357 60.3144C26.4281 60.7559 24.9827 61.2083 23.5391 61.2083ZM23.5409 3.80133C23.2111 3.80133 22.9011 3.84098 22.6164 3.9347C21.3836 4.33479 20.3942 5.67565 19.3471 7.09582C18.4766 8.27629 17.5755 9.49643 16.3986 10.3543C15.2037 11.223 13.7529 11.7096 12.349 12.1818C10.6873 12.7387 9.11936 13.2649 8.37142 14.2922C7.63611 15.3015 7.61809 16.9469 7.59826 18.6897C7.58204 20.1783 7.56402 21.7174 7.10265 23.1376C6.6611 24.4983 5.78881 25.7148 4.94536 26.8935C3.90907 28.3389 2.93045 29.705 2.93045 31.0405C2.93045 32.3759 3.90907 33.7421 4.94536 35.1875C5.78881 36.3661 6.6611 37.5826 7.10265 38.9433C7.56402 40.3635 7.58204 41.9026 7.59826 43.3913C7.61809 45.1322 7.63611 46.7777 8.37142 47.7869C9.11936 48.8142 10.6891 49.3405 12.349 49.8974C13.7529 50.3678 15.2037 50.8562 16.3986 51.7248C17.5755 52.5809 18.4766 53.8028 19.3471 54.9833C20.3942 56.4035 21.3854 57.7443 22.6164 58.1444C23.7716 58.5211 25.3216 58.0345 26.967 57.5191C28.407 57.0685 29.8975 56.6035 31.424 56.6035C32.9523 56.6035 34.4409 57.0685 35.8827 57.5191C37.5282 58.0327 39.0781 58.5193 40.2333 58.1444C41.4643 57.7443 42.4555 56.4035 43.5026 54.9833C44.3731 53.8028 45.2742 52.5827 46.4529 51.7248C47.6478 50.8562 49.0986 50.3696 50.5025 49.8974C52.1642 49.3405 53.734 48.8142 54.4801 47.7869C55.2154 46.7777 55.2334 45.1322 55.2533 43.3895C55.2713 41.9008 55.2875 40.3617 55.7489 38.9415C56.1904 37.5808 57.0627 36.3643 57.9062 35.1856C58.9425 33.7384 59.9211 32.3723 59.9211 31.0369C59.9211 29.7014 58.9425 28.3353 57.9062 26.8899C57.0627 25.713 56.1904 24.4947 55.7489 23.134C55.2875 21.7139 55.2713 20.1747 55.2551 18.6861C55.2352 16.9433 55.2172 15.2978 54.4819 14.2886C53.7358 13.2613 52.166 12.7351 50.5043 12.1782C49.1004 11.7078 47.6496 11.2194 46.4547 10.3507C45.2778 9.49282 44.3767 8.27271 43.5062 7.09223C42.4591 5.67206 41.4679 4.33119 40.2369 3.93109C39.0835 3.55622 37.53 4.04282 35.8863 4.55466C34.4463 5.00522 32.9559 5.47021 31.4294 5.47021C29.9029 5.47021 28.4124 5.00522 26.9724 4.55466C25.7289 4.17258 24.543 3.80133 23.5409 3.80133Z" fill="#494E5B"/>
<path d="M47.2088 81.1292C47.0971 81.1292 46.9836 81.1166 46.8718 81.0896L31.423 77.4328L15.9741 81.0896C15.5398 81.1941 15.0802 81.0914 14.7288 80.8138C14.3773 80.5363 14.1719 80.1128 14.1719 79.6658V62.4976C14.1719 61.6884 14.8279 61.0342 15.6353 61.0342C16.4445 61.0342 17.0987 61.6902 17.0987 62.4976V77.8149L31.0824 74.5042C31.304 74.4519 31.5347 74.4519 31.7564 74.5042L45.7418 77.8149V62.4976C45.7418 61.6884 46.3978 61.0342 47.2052 61.0342C48.0145 61.0342 48.6687 61.6902 48.6687 62.4976V79.6658C48.6687 80.1128 48.465 80.5363 48.1118 80.8138C47.8559 81.0193 47.5351 81.1292 47.2088 81.1292Z" fill="#494E5B"/>
<path d="M31.4234 77.3914C30.6142 77.3914 29.96 76.7354 29.96 75.928V67.5601C29.96 66.7509 30.616 66.0967 31.4234 66.0967C32.2308 66.0967 32.8868 66.7527 32.8868 67.5601V75.928C32.8868 76.7354 32.2308 77.3914 31.4234 77.3914Z" fill="#494E5B"/>
</svg>
