<svg width="97" height="76" viewBox="0 0 97 76" fill="none" xmlns="http://www.w3.org/2000/svg">
<path d="M53.0006 47.043C52.996 47.043 52.9914 47.043 52.9868 47.043L44.2254 47.0169C43.0535 47.0138 41.9398 46.5515 41.1718 45.7482C38.4762 42.9327 38.8509 40.0834 38.8694 39.9636C38.9569 39.3492 39.4838 38.8945 40.1043 38.8945C40.1059 38.8945 40.1074 38.8945 40.1074 38.8945L57.1555 38.9468C57.7776 38.9483 58.3029 39.4076 58.3874 40.0235C58.4043 40.1433 58.7622 42.9941 56.048 45.7943C55.2785 46.5868 54.168 47.043 53.0006 47.043ZM41.4499 41.3921C41.6204 42.0817 42.0259 43.0325 42.9736 44.0217C43.2762 44.3381 43.7355 44.5194 44.2331 44.5209L52.9945 44.547C53.5152 44.5301 53.9529 44.3704 54.2571 44.0555C55.2094 43.074 55.621 42.1278 55.7961 41.4366L41.4499 41.3921Z" fill="#B0B0B0"/>
<path d="M56.7729 62.8413C56.5517 62.8413 56.3275 62.7829 56.1247 62.6585C49.0007 58.3208 50.0206 46.6917 50.0667 46.2002C50.1328 45.5136 50.7471 45.016 51.426 45.0774C52.1111 45.1419 52.6149 45.7502 52.5504 46.4352C52.5412 46.5412 51.635 57.0045 57.4211 60.5281C58.0094 60.886 58.1952 61.654 57.8373 62.2423C57.6054 62.6278 57.1938 62.8413 56.7729 62.8413Z" fill="#B0B0B0"/>
<path d="M40.5007 62.7971C40.0767 62.7971 39.6636 62.5821 39.4301 62.1919C39.0753 61.6021 39.2672 60.8356 39.8571 60.4808C45.6662 56.9926 44.8245 46.5232 44.8153 46.4187C44.7554 45.7321 45.2623 45.1269 45.9489 45.067C46.6247 45.0025 47.2391 45.5125 47.3006 46.1991C47.3451 46.6921 48.2928 58.3274 41.1412 62.6205C40.94 62.7388 40.7203 62.7971 40.5007 62.7971Z" fill="#B0B0B0"/>
<path d="M57.6477 41.3843H39.4368C39.1434 41.3843 38.8593 41.2813 38.6365 41.0924C37.397 40.0525 36.2373 38.77 35.1836 37.2724C34.9041 37.2017 34.6337 37.0973 34.3772 36.9636C33.5048 36.5044 32.5202 36.019 31.4773 35.506C25.1551 32.3925 16.4997 28.1301 14.3923 20.47C13.529 17.332 14.1097 14.0572 15.9452 11.7102C17.9097 9.19578 21.2521 7.88249 25.1274 8.11136C25.9538 8.15744 26.7617 8.27263 27.5405 8.45235C27.3469 4.71218 27.4222 2.23768 27.4253 2.11941C27.4468 1.4451 27.9997 0.912109 28.6725 0.912109C28.6741 0.912109 28.6756 0.912109 28.6756 0.912109L68.5794 1.035C69.2552 1.03653 69.8051 1.57566 69.822 2.2515C69.8251 2.3667 69.8819 4.76595 69.6792 8.40474C70.3904 8.25267 71.1246 8.1559 71.8741 8.11289C75.7464 7.89939 79.0918 9.20345 81.0548 11.7133C82.8904 14.0603 83.4709 17.3351 82.6077 20.4731C80.4988 28.1362 71.8434 32.3986 65.5228 35.5091C64.4491 36.039 63.4768 36.5167 62.6228 36.9667C62.4016 37.0835 62.1697 37.1772 61.9285 37.2478C60.8656 38.7577 59.6951 40.051 58.4448 41.097C58.2237 41.2814 57.941 41.3843 57.6477 41.3843ZM39.9022 38.8883H57.1838C58.2421 37.9452 59.239 36.7839 60.1498 35.4307C60.3526 35.1312 60.6736 34.933 61.033 34.8885C61.1835 34.8701 61.3295 34.8255 61.4631 34.7549C62.3478 34.2895 63.334 33.8041 64.3784 33.288C70.3182 30.3634 78.3929 26.3883 80.2039 19.8065C80.8582 17.4257 80.442 14.9742 79.0918 13.2462C77.6403 11.3907 75.0598 10.4307 72.0185 10.6012C70.8665 10.6657 69.7667 10.8869 68.7499 11.2571C68.3521 11.4015 67.9097 11.3354 67.5718 11.0789C67.2339 10.8239 67.0496 10.4154 67.0803 9.99296C67.2876 7.15443 67.3337 4.84428 67.3399 3.52332L29.909 3.40812C29.9059 4.7598 29.9397 7.14827 30.1424 10.0805C30.1716 10.506 29.9812 10.9176 29.6387 11.1711C29.2946 11.4245 28.8461 11.4829 28.4483 11.3308C27.3777 10.9161 26.2134 10.6703 24.9876 10.6012C21.9464 10.423 19.3674 11.3861 17.9143 13.2462C16.5627 14.9742 16.1464 17.4272 16.8007 19.808C18.6117 26.3883 26.6849 30.3634 32.5801 33.2665C33.6399 33.7887 34.6399 34.2802 35.5415 34.7549C35.6859 34.8301 35.8472 34.8762 36.0192 34.89C36.3986 34.9208 36.7411 35.122 36.9531 35.4384C37.8563 36.7901 38.847 37.9482 39.9022 38.8883ZM32.4434 30.2697C32.2529 30.2697 32.0625 30.2267 31.8843 30.1377C26.4653 27.4251 20.5701 24.115 19.2015 19.1445C18.7561 17.5224 19.0064 15.8912 19.8743 14.7838C20.8005 13.5964 22.6575 12.9636 24.8417 13.0911C26.7202 13.1971 29.2777 13.8959 30.3053 14.8805C30.5111 15.0771 30.6447 15.3398 30.68 15.6224C31.3144 20.5545 32.3021 24.9229 33.6154 28.6032C33.7859 29.0824 33.6492 29.6185 33.2682 29.9564C33.0378 30.1638 32.7429 30.2697 32.4434 30.2697ZM21.61 18.484C22.4763 21.6297 26.0966 24.2148 30.3314 26.5188C29.462 23.5021 28.7739 20.1413 28.2808 16.4826C27.628 16.1354 26.1872 15.667 24.7035 15.5825C23.2013 15.4934 22.1675 15.9035 21.8435 16.3198C21.4748 16.7883 21.3826 17.6576 21.61 18.484ZM64.7056 30.1976C64.4076 30.1976 64.1112 30.09 63.8777 29.8842C63.4952 29.5463 63.3585 29.0087 63.5306 28.5295C64.8316 24.9045 65.8238 20.619 66.4781 15.796C66.5012 15.624 66.5611 15.4581 66.6517 15.3106C67.4397 14.028 70.0785 13.2109 72.1598 13.0926C74.3517 12.9744 76.1995 13.598 77.1273 14.7838C77.9951 15.8928 78.2455 17.524 77.8 19.146C76.5006 23.8646 71.0094 27.1824 65.2663 30.0655C65.0881 30.1546 64.8961 30.1976 64.7056 30.1976ZM68.8927 16.5379C68.3874 20.1383 67.6962 23.453 66.8284 26.4343C70.9832 24.1611 74.5314 21.6052 75.3916 18.484C75.6189 17.6576 75.5252 16.7883 75.1596 16.3198C74.8325 15.9035 73.8018 15.4857 72.3012 15.5825C70.7206 15.6716 69.3674 16.2199 68.8927 16.5379Z" fill="#B0B0B0"/>
<path d="M53.776 30.3884C53.4826 30.3884 53.1862 30.3285 52.9035 30.2056L51.7223 29.6972C50.7285 29.2717 49.7056 28.8324 48.6211 28.3378C47.5367 28.8324 46.5122 29.2717 45.5184 29.6987L44.3403 30.2056C43.6307 30.5143 42.8319 30.4283 42.2037 29.9783C41.574 29.5282 41.2361 28.7971 41.299 28.026C41.4188 26.5576 41.5786 25.0385 41.7767 23.5009C40.6815 22.3536 39.5925 21.1201 38.5373 19.8268C38.0611 19.2431 37.9198 18.469 38.1594 17.7532C38.3991 17.0374 38.9812 16.5044 39.7169 16.3263C41.0072 16.0145 42.5923 15.6919 44.3357 15.3893C45.1698 13.8072 46.0115 12.3449 46.7856 11.1315C47.1896 10.5017 47.8746 10.127 48.6227 10.127C49.3707 10.127 50.0558 10.5033 50.4582 11.1315C51.2323 12.3419 52.0741 13.8057 52.9082 15.3893C54.6515 15.6919 56.2382 16.0145 57.5269 16.3263C58.2626 16.5044 58.8433 17.0374 59.0844 17.7532C59.324 18.4675 59.1827 19.2416 58.7066 19.8268C57.6498 21.1217 56.5623 22.3551 55.4656 23.5025C55.6622 25.0369 55.8235 26.5561 55.9433 28.0275C56.0063 28.8002 55.6683 29.5298 55.0386 29.9798C54.6623 30.2486 54.2214 30.3884 53.776 30.3884ZM48.6227 25.7174C48.8024 25.7174 48.9821 25.7558 49.148 25.8341C50.3953 26.4132 51.5703 26.917 52.7054 27.4039L53.4135 27.708C53.286 26.2504 53.1186 24.7466 52.9143 23.2321C52.8636 22.8512 52.9911 22.4688 53.2583 22.1938C54.3351 21.091 55.4087 19.8959 56.4548 18.6349C55.1584 18.3369 53.5901 18.0297 51.8821 17.744C51.495 17.6795 51.1602 17.4353 50.9805 17.0866C50.1817 15.5414 49.3723 14.1037 48.6211 12.8964C47.87 14.1052 47.0606 15.5429 46.2619 17.0866C46.0822 17.4353 45.7473 17.6795 45.3602 17.744C43.6522 18.0297 42.0839 18.3369 40.7875 18.6349C41.8335 19.8959 42.9057 21.091 43.9824 22.1938C44.2497 22.4688 44.3772 22.8512 44.3265 23.2306C44.1237 24.7497 43.9548 26.2519 43.8288 27.7065L44.5339 27.4024C45.6705 26.9155 46.8455 26.4101 48.0943 25.8311C48.2648 25.7558 48.443 25.7174 48.6227 25.7174ZM48.357 12.474C48.357 12.4755 48.357 12.4755 48.357 12.474V12.474Z" fill="#B0B0B0"/>
<path d="M64.7178 69.0968H32.4064C31.7168 69.0968 31.1592 68.5377 31.1592 67.8496V65.8927C31.1592 62.8883 33.0024 60.5352 35.3571 60.5352H61.7671C64.1218 60.5352 65.965 62.8883 65.965 65.8927V67.8496C65.965 68.5377 65.4074 69.0968 64.7178 69.0968ZM33.6536 66.6024H63.4706V65.8927C63.4706 64.2062 62.572 63.0311 61.7671 63.0311H35.3571C34.5522 63.0311 33.6536 64.2062 33.6536 65.8927V66.6024Z" fill="#B0B0B0"/>
<path d="M68.1041 75.0874H25.9055C25.2158 75.0874 24.6582 74.5283 24.6582 73.8402V70.6269C24.6582 68.4074 26.4016 66.6025 28.5458 66.6025H32.9219C33.6116 66.6025 34.1692 67.1617 34.1692 67.8498C34.1692 68.5379 33.61 69.097 32.9219 69.097H28.5458C27.7778 69.097 27.1542 69.7836 27.1542 70.6254V72.5914H68.1056C68.7953 72.5914 69.3528 73.1505 69.3528 73.8387C69.3528 74.5299 68.7937 75.0874 68.1041 75.0874Z" fill="#B0B0B0"/>
<path d="M71.5991 75.0869C70.9094 75.0869 70.3518 74.5278 70.3518 73.8396V70.6263C70.3518 69.7831 69.7282 69.098 68.9602 69.098H64.6164C63.9267 69.098 63.3691 68.5389 63.3691 67.8508C63.3691 67.1626 63.9283 66.6035 64.6164 66.6035H68.9602C71.1029 66.6035 72.8478 68.4083 72.8478 70.6278V73.8412C72.8463 74.5293 72.2887 75.0869 71.5991 75.0869Z" fill="#B0B0B0"/>
</svg>
