<svg width="95" height="77" viewBox="0 0 95 77" fill="none" xmlns="http://www.w3.org/2000/svg">
<path d="M47.5857 76.7252C35.7233 76.7252 26.0723 67.0742 26.0723 55.2136C26.0723 43.3512 35.7233 33.7002 47.5857 33.7002C59.448 33.7002 69.0973 43.3512 69.0973 55.2136C69.0973 67.0742 59.448 76.7252 47.5857 76.7252ZM47.5857 36.6288C37.3381 36.6288 29.0009 44.966 29.0009 55.2136C29.0009 65.4612 37.3381 73.7984 47.5857 73.7984C57.8332 73.7984 66.1704 65.4612 66.1704 55.2136C66.1704 44.966 57.8332 36.6288 47.5857 36.6288Z" fill="#B0B0B0"/>
<path d="M47.586 68.9299C40.022 68.9299 33.8691 62.777 33.8691 55.213C33.8691 47.649 40.0238 41.4961 47.586 41.4961C48.3952 41.4961 49.0495 42.1521 49.0495 42.9595C49.0495 43.7669 48.3934 44.4229 47.586 44.4229C41.635 44.4229 36.796 49.2638 36.796 55.213C36.796 61.1622 41.6368 66.003 47.586 66.003C53.5352 66.003 58.3761 61.1622 58.3761 55.213C58.3761 54.4038 59.0321 53.7496 59.8395 53.7496C60.6487 53.7496 61.3029 54.4056 61.3029 55.213C61.3029 62.777 55.15 68.9299 47.586 68.9299Z" fill="#B0B0B0"/>
<path d="M49.057 36.1085C48.7596 36.1085 48.4587 36.0183 48.2009 35.8309C47.5467 35.3569 47.3989 34.4414 47.8729 33.7872L67.065 7.28694C67.6345 6.49936 67.7102 5.55859 67.2759 4.70433C66.7965 3.76536 65.8431 3.20306 64.7293 3.20306H30.447C29.3314 3.20306 28.3798 3.76355 27.9004 4.70433C27.4643 5.55859 27.5418 6.49936 28.1113 7.28694L46.8529 33.1636C47.3268 33.8178 47.1808 34.7333 46.5248 35.2073C45.8688 35.6831 44.9551 35.5336 44.4811 34.8793L25.7395 9.00268C24.5194 7.31938 24.3536 5.21436 25.2944 3.37246C26.2694 1.46208 28.2447 0.274414 30.4488 0.274414H64.7311C66.9353 0.274414 68.9105 1.46208 69.8855 3.37246C70.8263 5.21436 70.6587 7.31938 69.4404 9.00268L50.2483 35.5029C49.9581 35.8976 49.5112 36.1085 49.057 36.1085Z" fill="#B0B0B0"/>
<path d="M61.0352 17.5977H39.2046C38.3954 17.5977 37.7412 16.9417 37.7412 16.1343C37.7412 15.3251 38.3972 14.6709 39.2046 14.6709H61.0352C61.8444 14.6709 62.4986 15.3269 62.4986 16.1343C62.5004 16.9417 61.8444 17.5977 61.0352 17.5977Z" fill="#B0B0B0"/>
<path d="M63.1308 42.3254C62.8334 42.3254 62.5324 42.2353 62.2747 42.0479C61.6205 41.5739 61.4727 40.6583 61.9467 40.0041L76.4169 20.0244C77.938 17.923 77.7596 15.1205 75.979 13.2065L66.9966 4.27458C66.4235 3.70507 66.4199 2.77872 66.9912 2.20561C67.5607 1.63249 68.4889 1.63069 69.0602 2.2002L78.0822 11.1736C80.8667 14.1653 81.1388 18.4961 78.7869 21.7438L64.3184 41.7235C64.0319 42.1145 63.5849 42.3254 63.1308 42.3254Z" fill="#B0B0B0"/>
<path d="M32.0434 42.3245C31.5893 42.3245 31.1423 42.1136 30.8558 41.7189L16.3837 21.7392C14.03 18.4916 14.3039 14.1626 17.0487 11.2105L25.9014 2.44976C26.4763 1.88205 27.4027 1.88747 27.9704 2.46059C28.5381 3.0355 28.5327 3.96185 27.9596 4.52956L19.1502 13.247C17.4128 15.116 17.2326 17.9202 18.7537 20.0199L33.2275 40.0014C33.7015 40.6556 33.5555 41.5711 32.8995 42.0451C32.6418 42.2343 32.3408 42.3245 32.0434 42.3245Z" fill="#B0B0B0"/>
<path d="M15.4618 59.1839C14.7012 59.1839 14.0579 58.5945 14.0038 57.8232C13.9461 57.0176 14.5535 56.3165 15.3609 56.2588L19.6916 55.9506C20.4954 55.9056 21.1984 56.5003 21.256 57.3077C21.3137 58.1133 20.7063 58.8144 19.8989 58.8721L15.5681 59.1803C15.5303 59.1839 15.496 59.1839 15.4618 59.1839Z" fill="#B0B0B0"/>
<path d="M79.0011 59.1534C78.9704 59.1534 78.9398 59.1534 78.9073 59.1498L74.5747 58.8795C73.7673 58.829 73.1546 58.1333 73.2051 57.3277C73.2555 56.5221 73.9385 55.8986 74.7568 55.958L79.0894 56.2284C79.8968 56.2788 80.5096 56.9745 80.4591 57.7801C80.4104 58.5569 79.767 59.1534 79.0011 59.1534Z" fill="#B0B0B0"/>
<path d="M22.5756 46.0246C22.3396 46.0246 22.0999 45.9669 21.8782 45.8479L18.0629 43.7772C17.3528 43.3915 17.0878 42.503 17.4753 41.7929C17.861 41.081 18.7513 40.8197 19.4596 41.2054L23.2749 43.2761C23.985 43.6618 24.25 44.5503 23.8625 45.2604C23.5975 45.7488 23.0947 46.0246 22.5756 46.0246Z" fill="#B0B0B0"/>
<path d="M73.7043 73.8128C73.4051 73.8128 73.1023 73.7209 72.8428 73.5317L69.3375 70.9707C68.685 70.4931 68.5427 69.5775 69.0185 68.9251C69.4961 68.2727 70.4098 68.1286 71.064 68.6062L74.5693 71.1671C75.2218 71.6447 75.3641 72.5603 74.8883 73.2127C74.6 73.6056 74.1549 73.8128 73.7043 73.8128Z" fill="#B0B0B0"/>
<path d="M72.3803 47.2266C71.836 47.2266 71.3134 46.922 71.0611 46.3994C70.7096 45.6713 71.0142 44.7954 71.7423 44.444L75.6514 42.5552C76.3777 42.2038 77.2554 42.5083 77.6068 43.2365C77.9583 43.9646 77.6537 44.8405 76.9256 45.1919L73.0165 47.0806C72.8111 47.1798 72.593 47.2266 72.3803 47.2266Z" fill="#B0B0B0"/>
<path d="M19.9865 72.5175C19.5107 72.5175 19.0439 72.2868 18.7628 71.8596C18.3176 71.1856 18.5033 70.2773 19.1773 69.8321L22.8016 67.4405C23.4756 66.9954 24.3858 67.181 24.8291 67.855C25.2743 68.5291 25.0887 69.4374 24.4146 69.8826L20.7903 72.2742C20.5434 72.44 20.2641 72.5175 19.9865 72.5175Z" fill="#B0B0B0"/>
</svg>
