<svg width="67" height="83" viewBox="0 0 67 83" fill="none" xmlns="http://www.w3.org/2000/svg">
<path d="M33.0493 56.2569C20.1561 56.2569 9.66699 45.7678 9.66699 32.8745C9.66699 19.9813 20.1561 9.49219 33.0493 9.49219C45.9426 9.49219 56.4317 19.9813 56.4317 32.8745C56.4317 45.7678 45.9426 56.2569 33.0493 56.2569ZM33.0493 12.419C21.7709 12.419 12.5938 21.5943 12.5938 32.8745C12.5938 44.1548 21.7691 53.33 33.0493 53.33C44.3296 53.33 53.5048 44.153 53.5048 32.8745C53.5048 21.5961 44.3296 12.419 33.0493 12.419Z" fill="#B0B0B0"/>
<path d="M48.2422 28.7849C47.6456 28.7849 47.0851 28.4154 46.867 27.8225C45.4721 24.0035 42.5218 20.9055 38.775 19.3195C38.0306 19.0041 37.6828 18.1463 37.9982 17.4019C38.3118 16.6576 39.1696 16.3098 39.9158 16.6251C44.4088 18.5265 47.9448 22.241 49.6191 26.8187C49.8966 27.5774 49.5055 28.419 48.7468 28.6966C48.5792 28.7561 48.4098 28.7849 48.2422 28.7849Z" fill="#B0B0B0"/>
<path d="M26.4137 65.1826C26.1776 65.1826 25.9379 65.1573 25.6964 65.1033C23.8834 64.6906 22.9029 62.8919 22.0379 61.3042C21.5477 60.4066 20.9385 59.2874 20.4447 59.0495C19.9293 58.8008 18.6515 59.0225 17.626 59.1991C15.8652 59.5055 13.8683 59.8533 12.4391 58.7143C11.0045 57.5681 10.9018 55.5388 10.8099 53.7473C10.7576 52.7146 10.6909 51.4278 10.3377 50.9845C9.98987 50.5483 8.75533 50.2005 7.76409 49.923C6.03213 49.4364 4.06769 48.8831 3.26569 47.2214C2.47631 45.585 3.25849 43.7214 3.94695 42.0796C4.35065 41.1154 4.85525 39.9151 4.72548 39.3438C4.60654 38.8211 3.66038 37.9867 2.90163 37.3163C1.54094 36.1142 0 34.7517 0 32.8791C0 31.0066 1.54094 29.6441 2.90163 28.442C3.66218 27.7716 4.60834 26.9353 4.72729 26.4127C4.85705 25.8396 4.35425 24.6393 3.94875 23.6769C3.26029 22.0332 2.47811 20.1715 3.2675 18.535C4.06949 16.8734 6.03213 16.3201 7.76589 15.8335C8.75713 15.5541 9.99167 15.2081 10.3395 14.7702C10.6945 14.3268 10.7594 13.04 10.8135 12.0055C10.9036 10.2141 11.0081 8.18476 12.4427 7.04034C13.8701 5.89952 15.867 6.24734 17.6296 6.55372C18.6533 6.73214 19.9293 6.95563 20.4465 6.70332C20.9403 6.46542 21.5495 5.34622 22.0397 4.44871C22.9048 2.86093 23.8852 1.06227 25.6982 0.649558C27.4572 0.253064 29.0865 1.42092 30.5247 2.45361C31.3825 3.06817 32.4495 3.83413 33.0514 3.83413C33.6534 3.83413 34.7203 3.06817 35.5782 2.45361C37.0182 1.42092 38.6474 0.253064 40.4046 0.649558C42.2176 1.06047 43.198 2.86093 44.0631 4.44871C44.5533 5.34622 45.1625 6.46542 45.6563 6.70332C46.1754 6.95203 47.4496 6.73214 48.4714 6.55191C50.234 6.24373 52.2309 5.89591 53.6583 7.03853C55.0929 8.18296 55.1956 10.2141 55.2875 12.0037C55.3398 13.0364 55.4065 14.3232 55.7597 14.7666C56.1094 15.2045 57.3421 15.5505 58.3351 15.8299C60.0671 16.3165 62.0297 16.8698 62.8317 18.5314C63.6211 20.1697 62.8407 22.0314 62.1505 23.6732C61.7468 24.6375 61.2421 25.8378 61.3719 26.4091C61.4908 26.9317 62.437 27.7662 63.1976 28.4384C64.5583 29.6387 66.0992 31.0012 66.0992 32.8755C66.0992 34.7499 64.5565 36.1124 63.1976 37.3127C62.437 37.9831 61.4908 38.8193 61.3737 39.3402C61.2439 39.9133 61.7468 41.1136 62.1523 42.0778C62.8425 43.7196 63.6229 45.5832 62.8335 47.2196C62.0315 48.8813 60.0671 49.4346 58.3351 49.9212C57.3439 50.2005 56.1094 50.5465 55.7615 50.9845C55.4065 51.4278 55.3416 52.7146 55.2893 53.7473C55.1974 55.5388 55.0947 57.5681 53.6601 58.7125C52.2309 59.8533 50.234 59.5055 48.4732 59.1991C47.4495 59.0207 46.1754 58.799 45.6563 59.0495C45.1625 59.2874 44.5533 60.4066 44.0631 61.3042C43.198 62.8919 42.2176 64.6906 40.4046 65.1033C38.6528 65.5034 37.0164 64.3319 35.5782 63.2992C34.7203 62.6847 33.6534 61.9187 33.0514 61.9187C32.4495 61.9187 31.3825 62.6847 30.5247 63.2992C29.2829 64.1895 27.8988 65.1826 26.4137 65.1826ZM19.7274 56.0092C20.4267 56.0092 21.1007 56.1137 21.7171 56.4129C23.0597 57.0599 23.8473 58.5053 24.6097 59.9038C25.1215 60.8428 25.8226 62.1296 26.3453 62.2485C26.8157 62.3603 28.0213 61.4934 28.8161 60.9221C30.139 59.9741 31.5051 58.9937 33.0496 58.9937C34.5941 58.9937 35.9602 59.9741 37.2831 60.9221C38.0779 61.4934 39.2944 62.3531 39.754 62.2485C40.2784 62.1296 40.9777 60.8428 41.4895 59.9038C42.2519 58.5053 43.0394 57.0599 44.3821 56.4129C45.7482 55.7532 47.3883 56.0398 48.9742 56.3155C49.9529 56.4867 51.4343 56.7445 51.8326 56.4255C52.2363 56.1029 52.3138 54.5944 52.3643 53.5977C52.4472 51.9937 52.5301 50.3357 53.4727 49.157C54.4098 47.9837 56.0012 47.535 57.5421 47.1024C58.5081 46.8303 59.9679 46.4212 60.1968 45.9472C60.4131 45.4985 59.8346 44.1215 59.4525 43.2096C58.8271 41.7209 58.1801 40.18 58.519 38.6896C58.847 37.2478 60.0743 36.1646 61.2602 35.1175C62.0676 34.4038 63.1741 33.427 63.1741 32.8737C63.1741 32.3204 62.0676 31.3436 61.262 30.6317C60.0761 29.5828 58.8487 28.4997 58.5207 27.0579C58.1819 25.5692 58.8289 24.0283 59.4543 22.5397C59.8364 21.6277 60.4149 20.2508 60.1986 19.802C59.9697 19.328 58.5117 18.9189 57.5457 18.6468C56.0048 18.2142 54.4116 17.7655 53.4762 16.5922C52.5337 15.4136 52.449 13.7555 52.3679 12.1515C52.3174 11.1549 52.2399 9.64637 51.8362 9.32557C51.4379 9.00657 49.9565 9.26429 48.9778 9.43551C47.3919 9.71125 45.7536 9.99602 44.3875 9.3382C43.0449 8.68939 42.2573 7.24399 41.4967 5.84725C40.9849 4.90828 40.2838 3.62148 39.7594 3.50253C39.2782 3.3998 38.0833 4.25947 37.2885 4.82898C35.9656 5.77696 34.5995 6.75737 33.055 6.75737C31.5123 6.75737 30.1444 5.77696 28.8234 4.82898C28.0268 4.25767 26.8174 3.38899 26.3506 3.50253C25.8262 3.62148 25.1251 4.90828 24.6151 5.84725C23.8527 7.24579 23.0652 8.69119 21.7225 9.3382C20.3564 9.99782 18.7163 9.71125 17.1304 9.43551C16.1517 9.2661 14.6721 9.00657 14.2738 9.32557C13.8701 9.64817 13.7926 11.1567 13.7421 12.1533C13.661 13.7573 13.5763 15.4154 12.6338 16.594C11.6966 17.7673 10.1052 18.2142 8.56428 18.6486C7.59827 18.9207 6.13846 19.3298 5.91138 19.8038C5.6933 20.2526 6.27185 21.6295 6.65392 22.5414C7.2793 24.0301 7.9263 25.571 7.58747 27.0597C7.25946 28.5015 6.03214 29.5864 4.84626 30.6335C4.03886 31.3454 2.93406 32.3222 2.93406 32.8755C2.93406 33.4288 4.04066 34.4056 4.84807 35.1175C6.03395 36.1664 7.26127 37.2496 7.58928 38.6914C7.9281 40.18 7.28111 41.7209 6.65573 43.2096C6.27365 44.1215 5.69511 45.4985 5.91138 45.9472C6.14026 46.4212 7.60008 46.8321 8.56608 47.1043C10.107 47.5368 11.6984 47.9855 12.6356 49.157C13.5781 50.3375 13.661 51.9956 13.7439 53.5977C13.7944 54.5944 13.8719 56.1029 14.2756 56.4255C14.6721 56.7427 16.1535 56.4849 17.1322 56.3155C17.9936 56.1623 18.8803 56.0092 19.7274 56.0092Z" fill="#B0B0B0"/>
<path d="M35.2291 41.4645H32.3022V28.7947C29.8602 30.7231 26.8108 30.6077 26.6738 30.5987L26.8018 27.6737C26.8216 27.6737 29.2276 27.7422 30.81 26.2157C31.8013 25.2587 32.304 23.8223 32.304 21.9443H35.2309V41.4645H35.2291Z" fill="#B0B0B0"/>
<path d="M39.4333 40.8359H27.917V43.7628H39.4333V40.8359Z" fill="#B0B0B0"/>
<path d="M37.7491 82.3002C37.5635 82.3002 37.3761 82.2642 37.1995 82.1939C36.8012 82.0317 36.4948 81.7037 36.3596 81.2964L31.8089 67.5579C31.5548 66.7901 31.9712 65.9611 32.7389 65.7088C33.5103 65.4546 34.3339 65.871 34.588 66.6387L38.5962 78.7426L47.3876 74.1397C47.5894 74.0333 47.8129 73.9775 48.04 73.9721L58.329 73.7828L54.5767 62.3277C54.3244 61.56 54.7425 60.7328 55.5121 60.4804C56.2816 60.2263 57.1071 60.6463 57.3594 61.4158L61.7298 74.7542C61.8758 75.1958 61.802 75.6806 61.5316 76.0573C61.2631 76.4358 60.8305 76.6646 60.3656 76.6736L48.4419 76.8953L38.4304 82.1363C38.2159 82.2444 37.9816 82.3002 37.7491 82.3002Z" fill="#B0B0B0"/>
<path d="M28.1447 82.4283C27.914 82.4283 27.6834 82.3743 27.4743 82.2662L17.6376 77.2L5.70315 76.7026C5.22375 76.6828 4.7858 76.4305 4.52808 76.025C4.27036 75.6213 4.22708 75.1166 4.41271 74.6751L9.82847 61.7295C10.1403 60.9834 10.9981 60.632 11.7425 60.9438C12.4886 61.2556 12.84 62.1134 12.5282 62.8578L7.92529 73.8641L18.081 74.2876C18.2936 74.2966 18.5009 74.3507 18.6901 74.448L27.404 78.9374L29.19 74.6661C29.5018 73.9199 30.3597 73.5685 31.104 73.8803C31.8501 74.1921 32.2016 75.0499 31.8898 75.7943L29.491 81.5272C29.3342 81.9039 29.026 82.1977 28.6421 82.3382C28.4835 82.3995 28.3141 82.4283 28.1447 82.4283Z" fill="#B0B0B0"/>
<path d="M48.0656 76.8966C47.4384 76.8966 46.8563 76.4893 46.6653 75.8567L44.1151 67.4492C43.8808 66.6743 44.3169 65.8578 45.0901 65.6235C45.8651 65.3874 46.6815 65.8254 46.9158 66.5986L49.4659 75.006C49.7002 75.7792 49.2641 76.5974 48.4909 76.8317C48.3504 76.875 48.2062 76.8966 48.0656 76.8966Z" fill="#B0B0B0"/>
<path d="M18.0197 77.2164C17.8629 77.2164 17.7025 77.1912 17.5457 77.1371C16.7798 76.8758 16.3724 76.0431 16.6338 75.279L18.9389 68.535C19.2002 67.769 20.0346 67.3617 20.797 67.623C21.5629 67.8844 21.9703 68.717 21.7089 69.4812L19.4038 76.2252C19.1966 76.8325 18.6289 77.2164 18.0197 77.2164Z" fill="#B0B0B0"/>
</svg>
