<svg width="114" height="114" viewBox="0 0 114 114" fill="none" xmlns="http://www.w3.org/2000/svg">
<path fill-rule="evenodd" clip-rule="evenodd" d="M57.2206 52.3566C54.8577 23.0482 30.324 0.000244141 0.407145 0.000244141C0.407145 29.7784 23.2419 54.2233 52.3563 56.7795C23.048 59.1423 1.30771e-06 83.6762 0 113.593C29.7782 113.593 54.223 90.7585 56.7793 61.644C59.1421 90.9523 83.676 114 113.593 114C113.593 84.2223 90.7583 59.7773 61.6438 57.2208C90.9521 54.858 114 30.3242 114 0.407387C84.2221 0.407385 59.777 23.2422 57.2206 52.3566ZM56.9986 57.0014L57.0011 57.002L57.0017 56.9988H56.9986V57.0014Z" fill="#B0B0B0"/>
</svg>
