<svg width="114" height="114" viewBox="0 0 114 114" fill="none" xmlns="http://www.w3.org/2000/svg">
<path fill-rule="evenodd" clip-rule="evenodd" d="M46.7509 74.5469C16.0459 127.151 97.9961 127.151 67.2492 74.5469C114.07 127.151 127.152 114.092 74.5441 67.252C127.152 97.9579 127.152 16.0043 74.5441 46.7528C127.152 -0.087423 114.087 -13.1525 67.2492 39.4575C97.9539 -13.1525 16.0037 -13.1525 46.7509 39.4575C-0.0874013 -13.1525 -13.152 -0.087423 39.456 46.7528C-13.152 16.0465 -13.152 98.0001 39.456 67.252C-13.152 114.092 -0.0874013 127.151 46.7509 74.5469ZM57 71.25C64.87 71.25 71.25 64.87 71.25 57C71.25 49.13 64.87 42.75 57 42.75C49.13 42.75 42.75 49.13 42.75 57C42.75 64.87 49.13 71.25 57 71.25Z" fill="#B0B0B0"/>
</svg>
